<mxfile host="385db3a1-da3d-4619-809e-4ea78e32f038" modified="2020-08-25T14:59:03.834Z" agent="5.0 (Windows NT 10.0; Win64; x64) AppleWebKit/537.36 (KHTML, like Gecko) Code/1.47.3 Chrome/78.0.3904.130 Electron/7.3.2 Safari/537.36" etag="r6jvYz9_i_31lBQXr69A" version="13.1.3">
    <diagram id="6hGFLwfOUW9BJ-s0fimq" name="Page-1">
        <mxGraphModel dx="543" dy="400" grid="0" gridSize="10" guides="1" tooltips="1" connect="1" arrows="1" fold="1" page="1" pageScale="1" pageWidth="827" pageHeight="1169" background="#808080" math="0" shadow="0">
            <root>
                <mxCell id="0"/>
                <mxCell id="1" parent="0"/>
                <mxCell id="2" value="39" style="align=center;strokeColor=#FFFF66;html=1;fillColor=none;strokeWidth=2;fontColor=#ffffff;" vertex="1" parent="1">
                    <mxGeometry x="130" y="259" width="22" height="22" as="geometry"/>
                </mxCell>
                <mxCell id="3" value="87" style="align=center;strokeColor=#A50040;html=1;fillColor=#d80073;strokeWidth=2;fontColor=#ffffff;" vertex="1" parent="1">
                    <mxGeometry x="171" y="259" width="22" height="22" as="geometry"/>
                </mxCell>
                <mxCell id="4" value="20" style="align=center;strokeColor=#FFFF66;html=1;fillColor=none;strokeWidth=2;" vertex="1" parent="1">
                    <mxGeometry x="212" y="259" width="22" height="22" as="geometry"/>
                </mxCell>
                <mxCell id="5" value="71" style="align=center;html=1;strokeWidth=2;fillColor=none;strokeColor=#FFFF66;" vertex="1" parent="1">
                    <mxGeometry x="252" y="259" width="22" height="22" as="geometry"/>
                </mxCell>
                <mxCell id="7" value="43" style="align=center;strokeColor=#FFFF66;html=1;fillColor=none;strokeWidth=2;fontColor=#ffffff;" vertex="1" parent="1">
                    <mxGeometry x="293" y="259" width="22" height="22" as="geometry"/>
                </mxCell>
                <mxCell id="9" value="39" style="align=center;strokeColor=#A50040;html=1;fillColor=none;strokeWidth=2;fontColor=#ffffff;" vertex="1" parent="1">
                    <mxGeometry x="130" y="259" width="22" height="22" as="geometry"/>
                </mxCell>
                <mxCell id="10" value="25" style="align=center;strokeColor=#FFFF66;html=1;fillColor=none;strokeWidth=2;fontColor=#ffffff;" vertex="1" parent="1">
                    <mxGeometry x="153" y="575" width="22" height="22" as="geometry"/>
                </mxCell>
                <mxCell id="11" value="61" style="align=center;strokeColor=#FFFF66;html=1;fillColor=none;strokeWidth=2;fontColor=#ffffff;" vertex="1" parent="1">
                    <mxGeometry x="194" y="575" width="22" height="22" as="geometry"/>
                </mxCell>
                <mxCell id="12" value="75" style="align=center;strokeColor=#FFFF66;html=1;fillColor=none;strokeWidth=2;" vertex="1" parent="1">
                    <mxGeometry x="235" y="575" width="22" height="22" as="geometry"/>
                </mxCell>
                <mxCell id="13" value="59" style="align=center;html=1;strokeWidth=2;fillColor=none;strokeColor=#FFFF66;" vertex="1" parent="1">
                    <mxGeometry x="275" y="575" width="22" height="22" as="geometry"/>
                </mxCell>
                <mxCell id="15" value="27" style="align=center;strokeColor=#FFFF66;html=1;fillColor=none;strokeWidth=2;fontColor=#ffffff;" vertex="1" parent="1">
                    <mxGeometry x="316" y="575" width="22" height="22" as="geometry"/>
                </mxCell>
                <mxCell id="19" value="74" style="align=center;html=1;strokeWidth=2;fillColor=none;strokeColor=#FFFF66;" vertex="1" parent="1">
                    <mxGeometry x="359" y="575" width="22" height="22" as="geometry"/>
                </mxCell>
                <mxCell id="20" value="72" style="align=center;strokeColor=#FFFF66;html=1;fillColor=none;strokeWidth=2;fontColor=#ffffff;" vertex="1" parent="1">
                    <mxGeometry x="400" y="575" width="22" height="22" as="geometry"/>
                </mxCell>
                <mxCell id="25" value="25" style="align=center;strokeColor=#FFFF66;html=1;fillColor=none;strokeWidth=2;fontColor=#ffffff;" vertex="1" parent="1">
                    <mxGeometry x="104" y="633" width="22" height="22" as="geometry"/>
                </mxCell>
                <mxCell id="26" value="61" style="align=center;strokeColor=#FFFF66;html=1;fillColor=none;strokeWidth=2;fontColor=#ffffff;" vertex="1" parent="1">
                    <mxGeometry x="145" y="633" width="22" height="22" as="geometry"/>
                </mxCell>
                <mxCell id="27" value="75" style="align=center;strokeColor=#FFFF66;html=1;fillColor=none;strokeWidth=2;" vertex="1" parent="1">
                    <mxGeometry x="186" y="633" width="22" height="22" as="geometry"/>
                </mxCell>
                <mxCell id="28" value="" style="endArrow=none;html=1;strokeColor=#FF0080;strokeWidth=2;" edge="1" parent="1">
                    <mxGeometry width="50" height="50" relative="1" as="geometry">
                        <mxPoint x="85" y="661" as="sourcePoint"/>
                        <mxPoint x="233" y="661" as="targetPoint"/>
                    </mxGeometry>
                </mxCell>
                <mxCell id="33" value="" style="endArrow=none;html=1;strokeColor=#FF0080;strokeWidth=2;" edge="1" parent="1">
                    <mxGeometry width="50" height="50" relative="1" as="geometry">
                        <mxPoint x="315" y="661" as="sourcePoint"/>
                        <mxPoint x="479" y="661" as="targetPoint"/>
                    </mxGeometry>
                </mxCell>
                <mxCell id="34" value="59" style="align=center;html=1;strokeWidth=2;fillColor=none;strokeColor=#FFFF66;" vertex="1" parent="1">
                    <mxGeometry x="322" y="631" width="22" height="22" as="geometry"/>
                </mxCell>
                <mxCell id="35" value="27" style="align=center;strokeColor=#FFFF66;html=1;fillColor=none;strokeWidth=2;fontColor=#ffffff;" vertex="1" parent="1">
                    <mxGeometry x="363" y="631" width="22" height="22" as="geometry"/>
                </mxCell>
                <mxCell id="36" value="74" style="align=center;html=1;strokeWidth=2;fillColor=none;strokeColor=#FFFF66;" vertex="1" parent="1">
                    <mxGeometry x="406" y="631" width="22" height="22" as="geometry"/>
                </mxCell>
                <mxCell id="37" value="72" style="align=center;strokeColor=#FFFF66;html=1;fillColor=none;strokeWidth=2;fontColor=#ffffff;" vertex="1" parent="1">
                    <mxGeometry x="447" y="631" width="22" height="22" as="geometry"/>
                </mxCell>
                <mxCell id="38" value="25" style="align=center;strokeColor=#FFFF66;html=1;fillColor=none;strokeWidth=2;fontColor=#ffffff;" vertex="1" parent="1">
                    <mxGeometry x="76" y="696" width="22" height="22" as="geometry"/>
                </mxCell>
                <mxCell id="39" value="61" style="align=center;strokeColor=#FFFF66;html=1;fillColor=none;strokeWidth=2;fontColor=#ffffff;" vertex="1" parent="1">
                    <mxGeometry x="179" y="696" width="22" height="22" as="geometry"/>
                </mxCell>
                <mxCell id="40" value="75" style="align=center;strokeColor=#FFFF66;html=1;fillColor=none;strokeWidth=2;" vertex="1" parent="1">
                    <mxGeometry x="220" y="696" width="22" height="22" as="geometry"/>
                </mxCell>
                <mxCell id="41" value="" style="endArrow=none;html=1;strokeColor=#FF0080;strokeWidth=2;" edge="1" parent="1">
                    <mxGeometry width="50" height="50" relative="1" as="geometry">
                        <mxPoint x="174" y="724" as="sourcePoint"/>
                        <mxPoint x="252" y="724" as="targetPoint"/>
                    </mxGeometry>
                </mxCell>
                <mxCell id="42" value="" style="endArrow=none;html=1;strokeColor=#FF0080;strokeWidth=2;" edge="1" parent="1">
                    <mxGeometry width="50" height="50" relative="1" as="geometry">
                        <mxPoint x="69" y="723" as="sourcePoint"/>
                        <mxPoint x="147" y="723" as="targetPoint"/>
                    </mxGeometry>
                </mxCell>
                <mxCell id="43" value="" style="endArrow=none;html=1;strokeColor=#FF0080;strokeWidth=2;" edge="1" parent="1">
                    <mxGeometry width="50" height="50" relative="1" as="geometry">
                        <mxPoint x="303" y="717.31" as="sourcePoint"/>
                        <mxPoint x="381" y="717.31" as="targetPoint"/>
                    </mxGeometry>
                </mxCell>
                <mxCell id="44" value="" style="endArrow=none;html=1;strokeColor=#FF0080;strokeWidth=2;" edge="1" parent="1">
                    <mxGeometry width="50" height="50" relative="1" as="geometry">
                        <mxPoint x="426" y="717.31" as="sourcePoint"/>
                        <mxPoint x="504" y="717.31" as="targetPoint"/>
                    </mxGeometry>
                </mxCell>
                <mxCell id="45" value="27" style="align=center;strokeColor=#FFFF66;html=1;fillColor=none;strokeWidth=2;fontColor=#ffffff;" vertex="1" parent="1">
                    <mxGeometry x="363" y="631" width="22" height="22" as="geometry"/>
                </mxCell>
                <mxCell id="46" value="59" style="align=center;html=1;strokeWidth=2;fillColor=none;strokeColor=#FFFF66;" vertex="1" parent="1">
                    <mxGeometry x="310" y="691" width="22" height="22" as="geometry"/>
                </mxCell>
                <mxCell id="47" value="27" style="align=center;strokeColor=#FFFF66;html=1;fillColor=none;strokeWidth=2;fontColor=#ffffff;" vertex="1" parent="1">
                    <mxGeometry x="351" y="691" width="22" height="22" as="geometry"/>
                </mxCell>
                <mxCell id="48" value="74" style="align=center;html=1;strokeWidth=2;fillColor=none;strokeColor=#FFFF66;" vertex="1" parent="1">
                    <mxGeometry x="432" y="691" width="22" height="22" as="geometry"/>
                </mxCell>
                <mxCell id="49" value="72" style="align=center;strokeColor=#FFFF66;html=1;fillColor=none;strokeWidth=2;fontColor=#ffffff;" vertex="1" parent="1">
                    <mxGeometry x="473" y="691" width="22" height="22" as="geometry"/>
                </mxCell>
                <mxCell id="50" value="61" style="align=center;strokeColor=#FFFF66;html=1;fillColor=none;strokeWidth=2;fontColor=#ffffff;" vertex="1" parent="1">
                    <mxGeometry x="164" y="746.18" width="22" height="22" as="geometry"/>
                </mxCell>
                <mxCell id="52" value="" style="endArrow=none;html=1;strokeColor=#FF0080;strokeWidth=2;" edge="1" parent="1">
                    <mxGeometry width="50" height="50" relative="1" as="geometry">
                        <mxPoint x="152" y="774.18" as="sourcePoint"/>
                        <mxPoint x="197" y="774.18" as="targetPoint"/>
                    </mxGeometry>
                </mxCell>
                <mxCell id="53" value="" style="endArrow=none;html=1;strokeColor=#FF0080;strokeWidth=2;" edge="1" parent="1">
                    <mxGeometry width="50" height="50" relative="1" as="geometry">
                        <mxPoint x="220" y="775.9199999999998" as="sourcePoint"/>
                        <mxPoint x="265" y="775.9199999999998" as="targetPoint"/>
                    </mxGeometry>
                </mxCell>
                <mxCell id="54" value="75" style="align=center;strokeColor=#FFFF66;html=1;fillColor=none;strokeWidth=2;" vertex="1" parent="1">
                    <mxGeometry x="234" y="750.92" width="22" height="22" as="geometry"/>
                </mxCell>
                <mxCell id="56" value="59" style="align=center;strokeColor=#FFFF66;html=1;fillColor=none;strokeWidth=2;fontColor=#ffffff;" vertex="1" parent="1">
                    <mxGeometry x="299" y="747.68" width="22" height="22" as="geometry"/>
                </mxCell>
                <mxCell id="57" value="" style="endArrow=none;html=1;strokeColor=#FF0080;strokeWidth=2;" edge="1" parent="1">
                    <mxGeometry width="50" height="50" relative="1" as="geometry">
                        <mxPoint x="287" y="775.68" as="sourcePoint"/>
                        <mxPoint x="332" y="775.68" as="targetPoint"/>
                    </mxGeometry>
                </mxCell>
                <mxCell id="58" value="" style="endArrow=none;html=1;strokeColor=#FF0080;strokeWidth=2;" edge="1" parent="1">
                    <mxGeometry width="50" height="50" relative="1" as="geometry">
                        <mxPoint x="351.5" y="775.92" as="sourcePoint"/>
                        <mxPoint x="396.5" y="775.92" as="targetPoint"/>
                    </mxGeometry>
                </mxCell>
                <mxCell id="59" value="27" style="align=center;strokeColor=#FFFF66;html=1;fillColor=none;strokeWidth=2;" vertex="1" parent="1">
                    <mxGeometry x="363" y="750.92" width="22" height="22" as="geometry"/>
                </mxCell>
                <mxCell id="60" value="74" style="align=center;strokeColor=#FFFF66;html=1;fillColor=none;strokeWidth=2;fontColor=#ffffff;" vertex="1" parent="1">
                    <mxGeometry x="432.5" y="750.76" width="22" height="22" as="geometry"/>
                </mxCell>
                <mxCell id="61" value="" style="endArrow=none;html=1;strokeColor=#FF0080;strokeWidth=2;" edge="1" parent="1">
                    <mxGeometry width="50" height="50" relative="1" as="geometry">
                        <mxPoint x="420.5" y="778.76" as="sourcePoint"/>
                        <mxPoint x="465.5" y="778.76" as="targetPoint"/>
                    </mxGeometry>
                </mxCell>
                <mxCell id="62" value="" style="endArrow=none;html=1;strokeColor=#FF0080;strokeWidth=2;" edge="1" parent="1">
                    <mxGeometry width="50" height="50" relative="1" as="geometry">
                        <mxPoint x="484" y="777.66" as="sourcePoint"/>
                        <mxPoint x="529" y="777.66" as="targetPoint"/>
                    </mxGeometry>
                </mxCell>
                <mxCell id="63" value="72" style="align=center;strokeColor=#FFFF66;html=1;fillColor=none;strokeWidth=2;" vertex="1" parent="1">
                    <mxGeometry x="498" y="752.66" width="22" height="22" as="geometry"/>
                </mxCell>
                <mxCell id="64" value="" style="endArrow=none;dashed=1;html=1;strokeColor=#FFFF66;strokeWidth=2;" edge="1" parent="1">
                    <mxGeometry width="50" height="50" relative="1" as="geometry">
                        <mxPoint x="18" y="802" as="sourcePoint"/>
                        <mxPoint x="696" y="796" as="targetPoint"/>
                    </mxGeometry>
                </mxCell>
                <mxCell id="65" value="25" style="align=center;strokeColor=#FFFF66;html=1;fillColor=none;strokeWidth=2;fontColor=#ffffff;" vertex="1" parent="1">
                    <mxGeometry x="62" y="881" width="22" height="22" as="geometry"/>
                </mxCell>
                <mxCell id="66" value="61" style="align=center;strokeColor=#FFFF66;html=1;fillColor=none;strokeWidth=2;fontColor=#ffffff;" vertex="1" parent="1">
                    <mxGeometry x="176" y="885.58" width="22" height="22" as="geometry"/>
                </mxCell>
                <mxCell id="67" value="75" style="align=center;strokeColor=#FFFF66;html=1;fillColor=none;strokeWidth=2;" vertex="1" parent="1">
                    <mxGeometry x="217" y="885.58" width="22" height="22" as="geometry"/>
                </mxCell>
                <mxCell id="68" value="" style="endArrow=none;html=1;strokeColor=#FF0080;strokeWidth=2;" edge="1" parent="1">
                    <mxGeometry width="50" height="50" relative="1" as="geometry">
                        <mxPoint x="171" y="913.5799999999998" as="sourcePoint"/>
                        <mxPoint x="249" y="913.5799999999998" as="targetPoint"/>
                    </mxGeometry>
                </mxCell>
                <mxCell id="69" value="" style="endArrow=none;html=1;strokeColor=#FF0080;strokeWidth=2;" edge="1" parent="1">
                    <mxGeometry width="50" height="50" relative="1" as="geometry">
                        <mxPoint x="31" y="910.17" as="sourcePoint"/>
                        <mxPoint x="109" y="910.17" as="targetPoint"/>
                    </mxGeometry>
                </mxCell>
                <mxCell id="70" value="" style="endArrow=none;html=1;strokeColor=#FF0080;strokeWidth=2;" edge="1" parent="1">
                    <mxGeometry width="50" height="50" relative="1" as="geometry">
                        <mxPoint x="310" y="912.7399999999999" as="sourcePoint"/>
                        <mxPoint x="388" y="912.7399999999999" as="targetPoint"/>
                    </mxGeometry>
                </mxCell>
                <mxCell id="71" value="" style="endArrow=none;html=1;strokeColor=#FF0080;strokeWidth=2;" edge="1" parent="1">
                    <mxGeometry width="50" height="50" relative="1" as="geometry">
                        <mxPoint x="439" y="911.89" as="sourcePoint"/>
                        <mxPoint x="517" y="911.89" as="targetPoint"/>
                    </mxGeometry>
                </mxCell>
                <mxCell id="72" value="27" style="align=center;html=1;strokeWidth=2;fillColor=none;strokeColor=#FFFF66;" vertex="1" parent="1">
                    <mxGeometry x="317" y="886.43" width="22" height="22" as="geometry"/>
                </mxCell>
                <mxCell id="73" value="59" style="align=center;strokeColor=#FFFF66;html=1;fillColor=none;strokeWidth=2;fontColor=#ffffff;" vertex="1" parent="1">
                    <mxGeometry x="358" y="886.43" width="22" height="22" as="geometry"/>
                </mxCell>
                <mxCell id="74" value="72" style="align=center;html=1;strokeWidth=2;fillColor=none;strokeColor=#FFFF66;" vertex="1" parent="1">
                    <mxGeometry x="445" y="885.58" width="22" height="22" as="geometry"/>
                </mxCell>
                <mxCell id="75" value="74" style="align=center;strokeColor=#FFFF66;html=1;fillColor=none;strokeWidth=2;fontColor=#ffffff;" vertex="1" parent="1">
                    <mxGeometry x="486" y="885.58" width="22" height="22" as="geometry"/>
                </mxCell>
                <mxCell id="78" value="61" style="align=center;strokeColor=#FFFF66;html=1;fillColor=none;strokeWidth=2;fontColor=#ffffff;" vertex="1" parent="1">
                    <mxGeometry x="161" y="823" width="22" height="22" as="geometry"/>
                </mxCell>
                <mxCell id="79" value="" style="endArrow=none;html=1;strokeColor=#FF0080;strokeWidth=2;" edge="1" parent="1">
                    <mxGeometry width="50" height="50" relative="1" as="geometry">
                        <mxPoint x="149" y="850.9999999999998" as="sourcePoint"/>
                        <mxPoint x="194" y="850.9999999999998" as="targetPoint"/>
                    </mxGeometry>
                </mxCell>
                <mxCell id="80" value="" style="endArrow=none;html=1;strokeColor=#FF0080;strokeWidth=2;" edge="1" parent="1">
                    <mxGeometry width="50" height="50" relative="1" as="geometry">
                        <mxPoint x="217" y="852.7399999999998" as="sourcePoint"/>
                        <mxPoint x="262" y="852.7399999999998" as="targetPoint"/>
                    </mxGeometry>
                </mxCell>
                <mxCell id="81" value="75" style="align=center;strokeColor=#FFFF66;html=1;fillColor=none;strokeWidth=2;" vertex="1" parent="1">
                    <mxGeometry x="231" y="827.74" width="22" height="22" as="geometry"/>
                </mxCell>
                <mxCell id="82" value="59" style="align=center;strokeColor=#FFFF66;html=1;fillColor=none;strokeWidth=2;fontColor=#ffffff;" vertex="1" parent="1">
                    <mxGeometry x="296" y="824.5" width="22" height="22" as="geometry"/>
                </mxCell>
                <mxCell id="83" value="" style="endArrow=none;html=1;strokeColor=#FF0080;strokeWidth=2;" edge="1" parent="1">
                    <mxGeometry width="50" height="50" relative="1" as="geometry">
                        <mxPoint x="284" y="852.4999999999998" as="sourcePoint"/>
                        <mxPoint x="329" y="852.4999999999998" as="targetPoint"/>
                    </mxGeometry>
                </mxCell>
                <mxCell id="84" value="" style="endArrow=none;html=1;strokeColor=#FF0080;strokeWidth=2;" edge="1" parent="1">
                    <mxGeometry width="50" height="50" relative="1" as="geometry">
                        <mxPoint x="348.5" y="852.74" as="sourcePoint"/>
                        <mxPoint x="393.5" y="852.74" as="targetPoint"/>
                    </mxGeometry>
                </mxCell>
                <mxCell id="85" value="27" style="align=center;strokeColor=#FFFF66;html=1;fillColor=none;strokeWidth=2;" vertex="1" parent="1">
                    <mxGeometry x="360" y="827.74" width="22" height="22" as="geometry"/>
                </mxCell>
                <mxCell id="86" value="74" style="align=center;strokeColor=#FFFF66;html=1;fillColor=none;strokeWidth=2;fontColor=#ffffff;" vertex="1" parent="1">
                    <mxGeometry x="429.5" y="827.5799999999999" width="22" height="22" as="geometry"/>
                </mxCell>
                <mxCell id="87" value="" style="endArrow=none;html=1;strokeColor=#FF0080;strokeWidth=2;" edge="1" parent="1">
                    <mxGeometry width="50" height="50" relative="1" as="geometry">
                        <mxPoint x="417.5" y="855.5799999999999" as="sourcePoint"/>
                        <mxPoint x="462.5" y="855.5799999999999" as="targetPoint"/>
                    </mxGeometry>
                </mxCell>
                <mxCell id="88" value="" style="endArrow=none;html=1;strokeColor=#FF0080;strokeWidth=2;" edge="1" parent="1">
                    <mxGeometry width="50" height="50" relative="1" as="geometry">
                        <mxPoint x="481" y="854.4799999999998" as="sourcePoint"/>
                        <mxPoint x="526" y="854.4799999999998" as="targetPoint"/>
                    </mxGeometry>
                </mxCell>
                <mxCell id="89" value="72" style="align=center;strokeColor=#FFFF66;html=1;fillColor=none;strokeWidth=2;" vertex="1" parent="1">
                    <mxGeometry x="495" y="829.48" width="22" height="22" as="geometry"/>
                </mxCell>
                <mxCell id="90" value="25" style="align=center;strokeColor=#FFFF66;html=1;fillColor=none;strokeWidth=2;fontColor=#ffffff;" vertex="1" parent="1">
                    <mxGeometry x="50" y="746.18" width="22" height="22" as="geometry"/>
                </mxCell>
                <mxCell id="91" value="" style="endArrow=none;html=1;strokeColor=#FF0080;strokeWidth=2;" edge="1" parent="1">
                    <mxGeometry width="50" height="50" relative="1" as="geometry">
                        <mxPoint x="38" y="774.1799999999998" as="sourcePoint"/>
                        <mxPoint x="83" y="774.1799999999998" as="targetPoint"/>
                    </mxGeometry>
                </mxCell>
                <mxCell id="92" value="" style="endArrow=none;html=1;strokeColor=#FFFF66;strokeWidth=2;" edge="1" parent="1">
                    <mxGeometry width="50" height="50" relative="1" as="geometry">
                        <mxPoint x="148.5" y="859" as="sourcePoint"/>
                        <mxPoint x="261.5" y="859" as="targetPoint"/>
                    </mxGeometry>
                </mxCell>
                <mxCell id="93" value="" style="endArrow=none;html=1;strokeColor=#FFFF66;strokeWidth=2;" edge="1" parent="1">
                    <mxGeometry width="50" height="50" relative="1" as="geometry">
                        <mxPoint x="285" y="860" as="sourcePoint"/>
                        <mxPoint x="398" y="860" as="targetPoint"/>
                    </mxGeometry>
                </mxCell>
                <mxCell id="94" value="" style="endArrow=none;html=1;strokeColor=#FFFF66;strokeWidth=2;" edge="1" parent="1">
                    <mxGeometry width="50" height="50" relative="1" as="geometry">
                        <mxPoint x="418" y="862" as="sourcePoint"/>
                        <mxPoint x="531" y="862" as="targetPoint"/>
                    </mxGeometry>
                </mxCell>
                <mxCell id="100" value="25" style="align=center;strokeColor=#FFFF66;html=1;fillColor=none;strokeWidth=2;fontColor=#ffffff;" vertex="1" parent="1">
                    <mxGeometry x="43" y="822.79" width="22" height="22" as="geometry"/>
                </mxCell>
                <mxCell id="101" value="" style="endArrow=none;html=1;strokeColor=#FF0080;strokeWidth=2;" edge="1" parent="1">
                    <mxGeometry width="50" height="50" relative="1" as="geometry">
                        <mxPoint x="31.000000000000057" y="850.7899999999998" as="sourcePoint"/>
                        <mxPoint x="76" y="850.7899999999998" as="targetPoint"/>
                    </mxGeometry>
                </mxCell>
                <mxCell id="102" value="" style="endArrow=none;html=1;strokeColor=#FFFF66;strokeWidth=2;" edge="1" parent="1">
                    <mxGeometry width="50" height="50" relative="1" as="geometry">
                        <mxPoint x="21" y="861" as="sourcePoint"/>
                        <mxPoint x="134" y="861" as="targetPoint"/>
                    </mxGeometry>
                </mxCell>
                <mxCell id="104" value="&amp;nbsp;" style="text;html=1;align=center;verticalAlign=middle;resizable=0;points=[];autosize=1;" vertex="1" parent="1">
                    <mxGeometry x="474" y="980" width="13" height="18" as="geometry"/>
                </mxCell>
                <mxCell id="105" value="" style="endArrow=none;html=1;strokeColor=#FFFF66;strokeWidth=2;" edge="1" parent="1">
                    <mxGeometry width="50" height="50" relative="1" as="geometry">
                        <mxPoint x="35" y="926" as="sourcePoint"/>
                        <mxPoint x="253" y="926" as="targetPoint"/>
                    </mxGeometry>
                </mxCell>
                <mxCell id="106" value="25" style="align=center;strokeColor=#FFFF66;html=1;fillColor=none;strokeWidth=2;fontColor=#ffffff;" vertex="1" parent="1">
                    <mxGeometry x="91" y="959" width="22" height="22" as="geometry"/>
                </mxCell>
                <mxCell id="107" value="61" style="align=center;strokeColor=#FFFF66;html=1;fillColor=none;strokeWidth=2;fontColor=#ffffff;" vertex="1" parent="1">
                    <mxGeometry x="132" y="959" width="22" height="22" as="geometry"/>
                </mxCell>
                <mxCell id="108" value="75" style="align=center;strokeColor=#FFFF66;html=1;fillColor=none;strokeWidth=2;" vertex="1" parent="1">
                    <mxGeometry x="173" y="959" width="22" height="22" as="geometry"/>
                </mxCell>
                <mxCell id="109" value="" style="endArrow=none;html=1;strokeColor=#FF0080;strokeWidth=2;" edge="1" parent="1">
                    <mxGeometry width="50" height="50" relative="1" as="geometry">
                        <mxPoint x="72" y="987" as="sourcePoint"/>
                        <mxPoint x="220" y="987" as="targetPoint"/>
                    </mxGeometry>
                </mxCell>
                <mxCell id="110" value="" style="endArrow=none;html=1;strokeColor=#FF0080;strokeWidth=2;" edge="1" parent="1">
                    <mxGeometry width="50" height="50" relative="1" as="geometry">
                        <mxPoint x="335" y="989" as="sourcePoint"/>
                        <mxPoint x="498.9999999999999" y="989" as="targetPoint"/>
                    </mxGeometry>
                </mxCell>
                <mxCell id="111" value="27" style="align=center;html=1;strokeWidth=2;fillColor=none;strokeColor=#FFFF66;" vertex="1" parent="1">
                    <mxGeometry x="342" y="959" width="22" height="22" as="geometry"/>
                </mxCell>
                <mxCell id="112" value="59" style="align=center;strokeColor=#FFFF66;html=1;fillColor=none;strokeWidth=2;fontColor=#ffffff;" vertex="1" parent="1">
                    <mxGeometry x="383" y="959" width="22" height="22" as="geometry"/>
                </mxCell>
                <mxCell id="113" value="72" style="align=center;html=1;strokeWidth=2;fillColor=none;strokeColor=#FFFF66;" vertex="1" parent="1">
                    <mxGeometry x="426" y="959" width="22" height="22" as="geometry"/>
                </mxCell>
                <mxCell id="114" value="74" style="align=center;strokeColor=#FFFF66;html=1;fillColor=none;strokeWidth=2;fontColor=#ffffff;" vertex="1" parent="1">
                    <mxGeometry x="467" y="959" width="22" height="22" as="geometry"/>
                </mxCell>
                <mxCell id="116" value="" style="endArrow=none;html=1;strokeColor=#FFFF66;strokeWidth=2;" edge="1" parent="1">
                    <mxGeometry width="50" height="50" relative="1" as="geometry">
                        <mxPoint x="305" y="925" as="sourcePoint"/>
                        <mxPoint x="523" y="925" as="targetPoint"/>
                    </mxGeometry>
                </mxCell>
                <mxCell id="117" value="" style="endArrow=none;html=1;strokeColor=#FFFF66;strokeWidth=2;" edge="1" parent="1">
                    <mxGeometry width="50" height="50" relative="1" as="geometry">
                        <mxPoint x="75" y="1001" as="sourcePoint"/>
                        <mxPoint x="507" y="1001" as="targetPoint"/>
                    </mxGeometry>
                </mxCell>
                <mxCell id="118" value="25" style="align=center;strokeColor=#FFFF66;html=1;fillColor=none;strokeWidth=2;fontColor=#ffffff;" vertex="1" parent="1">
                    <mxGeometry x="173" y="1034" width="22" height="22" as="geometry"/>
                </mxCell>
                <mxCell id="119" value="27" style="align=center;strokeColor=#FFFF66;html=1;fillColor=none;strokeWidth=2;fontColor=#ffffff;" vertex="1" parent="1">
                    <mxGeometry x="214" y="1034" width="22" height="22" as="geometry"/>
                </mxCell>
                <mxCell id="120" value="59" style="align=center;strokeColor=#FFFF66;html=1;fillColor=none;strokeWidth=2;" vertex="1" parent="1">
                    <mxGeometry x="255" y="1034" width="22" height="22" as="geometry"/>
                </mxCell>
                <mxCell id="121" value="61" style="align=center;html=1;strokeWidth=2;fillColor=none;strokeColor=#FFFF66;" vertex="1" parent="1">
                    <mxGeometry x="295" y="1034" width="22" height="22" as="geometry"/>
                </mxCell>
                <mxCell id="122" value="72" style="align=center;strokeColor=#FFFF66;html=1;fillColor=none;strokeWidth=2;fontColor=#ffffff;" vertex="1" parent="1">
                    <mxGeometry x="336" y="1034" width="22" height="22" as="geometry"/>
                </mxCell>
                <mxCell id="123" value="74" style="align=center;html=1;strokeWidth=2;fillColor=none;strokeColor=#FFFF66;" vertex="1" parent="1">
                    <mxGeometry x="379" y="1034" width="22" height="22" as="geometry"/>
                </mxCell>
                <mxCell id="124" value="75" style="align=center;strokeColor=#FFFF66;html=1;fillColor=none;strokeWidth=2;fontColor=#ffffff;" vertex="1" parent="1">
                    <mxGeometry x="420" y="1034" width="22" height="22" as="geometry"/>
                </mxCell>
                <mxCell id="126" value="" style="endArrow=none;html=1;strokeColor=#FF0080;strokeWidth=2;" edge="1" parent="1">
                    <mxGeometry width="50" height="50" relative="1" as="geometry">
                        <mxPoint x="92.5" y="774.6599999999999" as="sourcePoint"/>
                        <mxPoint x="137.5" y="774.6599999999999" as="targetPoint"/>
                    </mxGeometry>
                </mxCell>
                <mxCell id="127" value="" style="endArrow=none;html=1;strokeColor=#FF0080;strokeWidth=2;" edge="1" parent="1">
                    <mxGeometry width="50" height="50" relative="1" as="geometry">
                        <mxPoint x="92.5" y="849.9999999999999" as="sourcePoint"/>
                        <mxPoint x="137.5" y="849.9999999999999" as="targetPoint"/>
                        <Array as="points">
                            <mxPoint x="106" y="850"/>
                        </Array>
                    </mxGeometry>
                </mxCell>
            </root>
        </mxGraphModel>
    </diagram>
</mxfile>